/* XPM */
static char *magick[] = {
/* columns rows colors chars-per-pixel */
"32 32 9 1",
"  c #000000",
". c #595959",
"X c #800000",
"o c #ff8200",
"O c #ffaa59",
"+ c #ffdfaa",
"@ c #c0c0c0",
"# c #ffffff",
"$ c None",
/* pixels */
"$$$$$$$$$ $$$$$$       $$$$$$$$$",
"$$$$$$$$ .  $$$ #++++++ $$$$$$$$",
"$$$$$$$$ .@@  $ O#++++++ $$$$$$$",
"$$$$$$$ @.@##@  OO#++++++ $$$$$$",
"$$$$$$$ #.@####@  O#++++++ $$$$$",
"$$$$$$ @#.@######@  #++++++ $$$$",
"$$$$$$ ##.@#######@. #++++++ $$$",
"$$$$$ @##.@######.. OO#++++++ $$",
"$$$$$ ###.@####@.@@ OOO#++++++ $",
"$$$$ @###.@###..## OOOOO####### ",
"$$$$ ####.@#@.@##@ OXOOO+OOOOOO ",
"$$$ @####.@..#### OOXXOO+OOOOOO ",
"$$$ #####..@####@ OOXoXO+OOOOOO ",
"$$ @#####.@##### OOO+ooX+OOOOOO ",
"$$ ######.@####@ OOOO+ooXXXXX  $",
"$ @######.@#### OOOOOO+oooooo $$",
"$ #######.@###@ OOOOOOO+oooooo $",
" .........@###  OOOOOOOO+++++++ ",
" @@@@@@.@@@##@  OOOOXOOO+OOOOOO ",
"$ #####.@#### $ OOOOXXOO+OOOOOO ",
"$ @####.@###@ $ OOOOXoXO+OOOOOO ",
"$$ ####.@### $$ OOOO+ooX+OOOOOO ",
"$$ @###.@##@ $$ OOOOO+ooXXXXX  $",
"$$$ ###.@## $$$$ OOOOO+oooooo $$",
"$$$ @##.@#@ $$$$$ OOOOO+oooooo $",
"$$$$ ##.@# $$$$$$$ OOOOO+++++++ ",
"$$$$ @#.@@ $$$$$$$$ OOOO+OOOOOO ",
"$$$$$ #.@ $$$$$$$$$$ OOO+OOOOOO ",
"$$$$$ @.@ $$$$$$$$$$$ OO+OOOOOO ",
"$$$$$$ . $$$$$$$$$$$$$ O+OOOOOO ",
"$$$$$$ . $$$$$$$$$$$$$$        $",
"$$$$$$$ $$$$$$$$$$$$$$$$$$$$$$$$"
};
