<?xml version="1.0" encoding="UTF-8" standalone="no"?>
<svg
   xmlns:dc="http://purl.org/dc/elements/1.1/"
   xmlns:cc="http://creativecommons.org/ns#"
   xmlns:rdf="http://www.w3.org/1999/02/22-rdf-syntax-ns#"
   xmlns:svg="http://www.w3.org/2000/svg"
   xmlns="http://www.w3.org/2000/svg"
   xmlns:sodipodi="http://sodipodi.sourceforge.net/DTD/sodipodi-0.dtd"
   xmlns:inkscape="http://www.inkscape.org/namespaces/inkscape"
   viewBox="0 0 8 8"
   version="1.1"
   id="svg8"
   sodipodi:docname="gpg-key-trust-level-2.svg"
   inkscape:version="0.92.1 r15371"
   width="8"
   height="8">
  <metadata
     id="metadata12">
    <rdf:RDF>
      <cc:Work
         rdf:about="">
        <dc:format>image/svg+xml</dc:format>
        <dc:type
           rdf:resource="http://purl.org/dc/dcmitype/StillImage" />
        <dc:title></dc:title>
      </cc:Work>
    </rdf:RDF>
  </metadata>
  <sodipodi:namedview
     pagecolor="#ffffff"
     bordercolor="#666666"
     borderopacity="1"
     objecttolerance="10"
     gridtolerance="10"
     guidetolerance="10"
     inkscape:pageopacity="0"
     inkscape:pageshadow="2"
     inkscape:window-width="1537"
     inkscape:window-height="950"
     id="namedview10"
     showgrid="true"
     showguides="false"
     inkscape:zoom="11.3137084781"
     inkscape:cx="14.7238130073"
     inkscape:cy="-5.58843052227"
     inkscape:window-x="508"
     inkscape:window-y="286"
     inkscape:window-maximized="0"
     inkscape:current-layer="svg8">
    <inkscape:grid
       type="xygrid"
       id="grid30" />
  </sodipodi:namedview>
  <defs
     id="defs3051">
    <style
       type="text/css"
       id="current-color-scheme">
      .ColorScheme-Text {
        color:#4d4d4d;
      }
      .ColorScheme-NeutralText {
        color:#f67400;
      }
      </style>
  </defs>
  <path
     style="opacity:1;fill:#31363b;fill-opacity:1;fill-rule:nonzero;stroke:none;stroke-width:0.0979795903;stroke-linecap:round;stroke-linejoin:round;stroke-miterlimit:4;stroke-dasharray:none;stroke-dashoffset:0;stroke-opacity:1"
     d="M 2.953125,0 C 2.61801338372,0.007910320033 2.29026485828,0.099921688856 2,0.267578125 1.38108302315,0.62490999179 0.999867412878,1.28533625411 1,2 V 3 H 0 V 7 H 2.302734375 C 2.27690069369,6.86794925345 2.37937075327,6.66476554491 2.259765625,6.59375 V 6 H 1 V 4 H 2.802734375 C 3.1974780839,3.55098695895 3.7678100711,3.259765625 4.40625,3.259765625 H 6 V 3 H 5 V 2 C 5.00013258712,1.28533625411 4.61891697685,0.62490999179 4,0.267578125 3.68220131302,0.08402434842 3.32002408961,-0.008547068756 2.953125,0 Z M 3.0234375,0.99609375 C 3.19172448421,1.00014857896 3.35628422026,1.04649397401 3.501953125,1.130859375 3.81261722313,1.31000484165 4.00399812738,1.64138422839 4.00390625,2 H 4 V 3 H 2 V 2 H 1.99609375 C 1.99600187262,1.64138422839 2.18738277687,1.31000484165 2.498046875,1.130859375 2.6574765817,1.03853805244 2.83925399453,0.99191113242 3.0234375,0.99609375 Z"
     id="rect3847"
     inkscape:connector-curvature="0"
     sodipodi:nodetypes="cccccccsccccscccccccccccccccc" />
  <path
     style="opacity:1;fill:#5098ce;fill-opacity:1;fill-rule:nonzero;stroke:none;stroke-width:0.1000000015;stroke-linecap:round;stroke-linejoin:round;stroke-miterlimit:4;stroke-dasharray:none;stroke-dashoffset:0;stroke-opacity:1"
     d="M 4.40625,4 C 3.6271875,4 3,4.6271875 3,5.40625 V 6.59375 C 3,7.3728125 3.6271875,8 4.40625,8 H 6.59375 C 7.3728125,8 8,7.3728125 8,6.59375 V 5.40625 C 8,4.6271875 7.3728125,4 6.59375,4 Z M 4.40625,5 H 6.59375 C 6.83610973225,5 7,5.16389026775 7,5.40625 V 6.59375 C 7,6.83610973225 6.83610973225,7 6.59375,7 H 4.40625 C 4.16389026775,7 4,6.83610973225 4,6.59375 V 5.40625 C 4,5.16389026775 4.16389026775,5 4.40625,5 Z"
     id="rect3906"
     inkscape:connector-curvature="0"
     sodipodi:nodetypes="ssssssssssssssssss" />
  <path
     style="opacity:1;fill:#5098ce;fill-opacity:0.776515108;fill-rule:nonzero;stroke:none;stroke-width:0.1000000015;stroke-linecap:round;stroke-linejoin:round;stroke-miterlimit:4;stroke-dasharray:none;stroke-dashoffset:0;stroke-opacity:1"
     d="M 4.21875,5 H 4.78125 C 4.9024375,5 5,5.0975625 5,5.21875 V 6.78125 C 5,6.9024375 4.9024375,7 4.78125,7 H 4.21875 C 4.0975625,7 4,6.9024375 4,6.78125 V 5.21875 C 4,5.0975625 4.0975625,5 4.21875,5 Z"
     id="rect3916"
     inkscape:connector-curvature="0"
     sodipodi:nodetypes="sssssssss" />
  <path
     id="path932"
     d="M 23.1906791261,10.3336309562 C 21.5286855162,10.3336309562 20.1906791261,11.6716373436 20.1906791261,13.3336309562 V 14.3336309549 C 20.1906791261,15.9956245638 21.5286855162,17.3336309549 23.1906791261,17.3336309549 H 27.1906791264 C 28.8526727364,17.3336309549 30.1906791264,15.9956245638 30.1906791264,14.3336309549 V 13.3336309562 C 30.1906791264,11.6716373436 28.8526727364,10.3336309562 27.1906791264,10.3336309562 Z M 23.1945853764,11.3375372063 H 27.1867728762 C 28.3097524281,11.3375372063 29.1887260012,12.2145576523 29.1887260012,13.3375372037 V 14.3336309549 C 29.1887260012,15.4566105064 28.3127164012,16.3277715811 27.1867728762,16.3277715811 H 23.1945853764 C 22.0686418513,16.3277715811 21.1945853762,15.4566105064 21.1945853762,14.3336309549 V 13.3375372037 C 21.1945853762,12.2145576523 22.0716058241,11.3375372063 23.1945853764,11.3375372063 Z"
     style="opacity:1;fill:#5098ce;fill-opacity:1;fill-rule:nonzero;stroke:none;stroke-width:0.1000000015;stroke-linecap:round;stroke-linejoin:round;stroke-miterlimit:4;stroke-dasharray:none;stroke-dashoffset:0;stroke-opacity:1"
     inkscape:connector-curvature="0"
     sodipodi:nodetypes="ssssssssssssssssss"
     inkscape:export-xdpi="720"
     inkscape:export-ydpi="720" />
  <path
     sodipodi:nodetypes="csscccc"
     inkscape:connector-curvature="0"
     id="path934"
     d="M 23.1906791261,12.3336309537 C 22.6083203851,12.3355852189 22.1906791263,12.7544075143 22.1906791263,13.3375372037 V 14.3336309549 C 22.1906791263,14.9167645033 22.6024581262,15.3278101864 23.1906791261,15.3297247061 L 25.1906791263,15.3337847842 V 12.3337847842 Z"
     style="opacity:1;fill:#5098ce;fill-opacity:1;fill-rule:nonzero;stroke:none;stroke-width:0.1000000015;stroke-linecap:round;stroke-linejoin:round;stroke-miterlimit:4;stroke-dasharray:none;stroke-dashoffset:0;stroke-opacity:1"
     inkscape:export-xdpi="720"
     inkscape:export-ydpi="720" />
</svg>
