/* XPM */
static char * feather_white_xpm[] = {
/* width height num_colors chars_per_pixel */
"17 17 4 1",
/* colors */
" 	s none	c none",
".	c black",
"X	c #f8f8f8",
"o	c #0033cc",
/* pixels */
"                 ",
"                 ",
"                 ",
"   ......        ",
" ..X.X.X..       ",
" ......X.X.      ",
" .XXXX.X.X..     ",
"  .......X.X.    ",
"    .XXX.X.X.    ",
"     ......X.    ",
"     ..XXX.X.    ",
"       .......   ",
"            ...  ",
"  ooo        ..  ",
" oo oo oooo o .  ",
"o    oo   oo oo  ",
"                 "};
