/* XPM */
static char * page_xpm[] = {
"22 22 4 1",
" 	c None",
".	c #000000000000",
"X	c #82077DF77DF7",
"o	c #FFFFFFFFFFFF",
"                      ",
"                      ",
"                      ",
"                      ",
"     ..               ",
"    .Xo.    ...       ",
"    .Xoo. ..oo.       ",
"    .Xooo.Xooo...     ",
"    .Xooo.oooo.X.     ",
"    .Xooo.Xooo.X.     ",
"    .Xooo.oooo.X.     ",
"    .Xooo.Xooo.X.     ",
"    .Xooo.oooo.X.     ",
"     .Xoo.Xoo..X.     ",
"      .Xo.o..ooX.     ",
"       .X..XXXXX.     ",
"       ..X.......     ",
"        ..            ",
"                      ",
"                      ",
"                      ",
"                      "};
