/* XPM */
static char * attach_xpm[] = {
"22 22 5 1",
" 	s None	c None",
".	c white",
"X	c black",
"o	c #C7C6C7",
"O	c #85BCBC",
"         .XXXo        ",
"        oX   oX       ",
"        oX   oX       ",
"  XXXXXXXXXXXoXXXXXX  ",
"  X..........oX.....  ",
"  X..........oX.....  ",
"  X..........oX.....  ",
"  X......XX..oX.....  ",
"  X......Xo..oX.....  ",
"  X...OOOXoOOoXOOOOO  ",
"  X......Xo..oX.....  ",
"  X......Xo..oX.....  ",
"  X......Xo..oX.....  ",
"  X......Xo..oX.....  ",
"  X......Xo..oX.....  ",
"  X......Xo..oX.....  ",
"  X......XoXX.X.....  ",
"  X...OOOOXooXOOOOOO  ",
"  X........XX.......  ",
"  X.................  ",
"                      ",
"                      "};
