/* XPM */
static char * checkmail2_xpm[] = {
"22 22 8 1",
" 	s None	c None",
".	c blue",
"X	c blue2",
"o	c blue4",
"O	c black",
"+	c #79E77DF779E7",
"@	c white",
"#	c grey70",
"                      ",
"         ......       ",
"       ..XXXXXXX      ",
"      .XXXoooXXXX     ",
"      .XXo   .XXX     ",
"       oo    .XXo     ",
"            .XXo      ",
"   OOOOOOOO.XXo+OO    ",
"   O@@@@@@@.Xo+#@O+   ",
"   OO@@@@@.Xo+#@OO+   ",
"   O@O@@@@.Xo+@O@O+   ",
"   O@@O@@@.oo#O@@O+   ",
"   O@@@O@@@++O@@@O+   ",
"   O@@O@O@@#O@O@@O+   ",
"   O@O@@@+..@@@O@O+   ",
"   OO@@@@.XXo@@@OO+   ",
"   OOOOOO.XXo+OOOO+   ",
"    +++++.ooo++++++   ",
"          oo          ",
"                      ",
"                      ",
"                      "};
