/* XPM */
static char * kmfldsent_xpm[] = {
/* width height num_colors chars_per_pixel */
"15 13 5 1",
/* colors */
" 	c None",
".	c green4",
"X	c white",
"o	c #c0c0c0",
"O	c #808080",
/* pixels */
"               ",
"          ..   ",
"      XXo...XXX",
"     Xoo...OoXX",
"   .oXo...OXXXO",
"  ...o...OoXXOX",
"  o.....OXXXOXO",
" Xoo...OoXXOXOX",
"XXXXo.OXXXOXOX ",
"OOOOOOOOOOXOX  ",
"XXXXXXXXXXOX   ",
"OOOOOOOOOOX    ",
"XXXXXXXXXX     "};
