/* XPM */
static char * insertFile_xpm[] = {
"22 22 5 1",
" 	s None	c None",
".	c black",
"X	c white",
"o	c #DF7DDF7DDF7D",
"O	c #79E77DF779E7",
"                      ",
"   ........           ",
"   .XXXXXXo.          ",
"   .XXXXXX o.         ",
"   .XXXXXX Xo.        ",
"   .XXXXXX ....       ",
"   .XXXXXXX   .       ",
"   .XXXXXXXXXo.       ",
"   .XXXXXXXXXX.       ",
"   .XXXXXXXXXX.       ",
"   .XXXX.......       ",
"   .XXXX.XXXXOX.      ",
"   .XXXX.XXXXO..      ",
"   .XXXX.X..XXo.      ",
"   .XXXX.XXXXXX.      ",
"   .XXXX.X....X.      ",
"   ......XXXXXX.      ",
"        ........      ",
"                      ",
"                      ",
"                      ",
"                      "};
