/* XPM */
static char * kmmsgold_xpm[] = {
/* width height num_colors chars_per_pixel */
"12 12 3 1",
/* colors */
" 	s None	c None",
".	c white",
"X	c grey65",
/* pixels */
"            ",
"            ",
"            ",
"            ",
"            ",
"            ",
"    ....    ",
"     XXXX   ",
"            ",
"            ",
"            ",
"            "};
