/* XPM */
static char * kmmsgsent_xpm[] = {
/* width height num_colors chars_per_pixel */
"12 12 4 1",
/* colors */
" 	s None	c None",
".	c black",
"X	c grey65",
"o	c white",
/* pixels */
"            ",
"            ",
"            ",
". . XXXXXXXX",
"   XoooooooX",
". .oooo.XXoX",
"  XoooX.XooX",
". XoooooooX ",
" XooooooooX ",
". XXXXXXXX  ",
"            ",
"            "};
