/* XPM */
static char * kmmsgqueued_xpm[] = {
/* width height num_colors chars_per_pixel */
"12 12 2 1",
/* colors */
" 	s None	c None",
".	c green4",
/* pixels */
"            ",
"            ",
"            ",
"       ..   ",
"       ..   ",
"      ..    ",
"      ..    ",
" ..  ..     ",
" ......     ",
"   ...      ",
"    .       ",
"            "};
