/* XPM */
static char * kmmsgqueued_xpm[] = {
/* width height num_colors chars_per_pixel */
"12 12 4 1",
/* colors */
" 	s None	c None",
".	c grey65",
"X	c white",
"o	c black",
/* pixels */
"            ",
"            ",
"            ",
" .......... ",
" .XXXXXXXX. ",
" .XXXX.o.X. ",
" .XXXXo..X. ",
" .XXXXXXXX. ",
" .XXXXXXXX. ",
" .......... ",
"            ",
"            "};
