/* XPM */
static char * kmmsgdel_xpm[] = {
/* width height num_colors chars_per_pixel */
"12 12 3 1",
/* colors */
" 	s None	c None",
".	c red",
"X	c #800000",
/* pixels */
"            ",
"        .X  ",
" .     .X   ",
" X.    .X   ",
"  X.. .X    ",
"   XX.X     ",
"    .X.     ",
"    .XX..   ",
"   .X  XX.  ",
"  .X     X  ",
"            ",
"            "};
