/* XPM */
static char * fileprint_xpm[] = {
"22 22 5 1",
" 	c None",
".	c #000000000000",
"X	c #FFFFFFFFFFFF",
"o	c #820782078207",
"O	c #FBEE14514103",
"                      ",
"                      ",
"                      ",
"      ..........      ",
"      .XXXXXXXX.      ",
"      .X.o.XXXX.      ",
"      .XXXXXXXX.      ",
"      .X.o.XXXX.      ",
"      .XXXXXXXX.      ",
"      .X.o.o.oX.      ",
"      .XXXXXXXX.      ",
"   ................   ",
"   .XXXXXXXXXXXXXX.   ",
"   .XOO           .   ",
"   .X             .   ",
"   .X             .   ",
"   ................   ",
"    .oooooooooooo.    ",
"    ..............    ",
"                      ",
"                      ",
"                      "};
