/* XPM */
static char * reply_xpm[] = {
"22 22 6 1",
" 	s None	c None",
".	c black",
"X	c white",
"o	c #DF7DDF7DDF7D",
"O	c blue2",
"+	c grey70",
"                      ",
"                      ",
"                      ",
"     ........         ",
"     .XXXXXXo.        ",
"     .XXXXXX o.       ",
"     .XXXXXX Xo.      ",
"     .XXXXXX ....     ",
"     .XXXXXXX  o.     ",
"     .XOOOOoXXXo.     ",
"  O  OOOOOOOOXXX.     ",
"  OOOOOOOOOOOoXX.     ",
"  OOOOO++++OOOoX.     ",
"  OOOO+oXXooOO+X.     ",
"  OOOOOXXXXoOO+X.     ",
"     +++oXXXOO+X.     ",
"     .XXXXXXOO+X.     ",
"     .XXXXXXOO+X.     ",
"     ....++OO+...     ",
"         OOO          ",
"      OOOO            ",
"                      "};
