/* XPM */
static char * pgp_keys_xpm[] = {
/* width height num_colors chars_per_pixel */
"48 48 7 1",
/* colors */
" 	c None",
".	c black",
"X	c #6f6f6f",
"o	c #fff770",
"O	c #6f675f",
"+	c #9f872f",
"@	c #ffd77f",
/* pixels */
"                     .....                      ",
"                   .........                    ",
"                  ...     ...                   ",
"                 ..         ..                  ",
"                ...          ..                 ",
"                ..           ..                 ",
"                ..           ...                ",
"                ..            ..                ",
"                ..            ..                ",
"                ..            ..                ",
"                ..           ...                ",
"                 ..       ......                ",
"                 ...  ....XX......              ",
"                  ....oo.XX....XXO.             ",
"             ........oo.XX....XXXXX.            ",
"           ..o.+++..oo.XXX...oXXXXX.            ",
"          .ooo.+++.oo.XXXXooooXXXXXX.           ",
"         .ooo.+++.ooo.XXXXXooXXXXXXX.           ",
"         .ooo.+++.ooo.XXXXXXXXXXXXXXX.          ",
"         .ooo.+++.ooo.XXXXXXXXXXXXXXX.          ",
"         .ooo.+++.oooo.XXXXXXXXXXXXXX.          ",
"          .ooo.+++.oooo.XXXXXXXXXXXXX.          ",
"           .oo.+++.ooooo.XXXXXXXXXXXX.          ",
"           .oo.+++.ooooo.XXXXXXXXXXXX.          ",
"          .oooo.+++.ooooo.XXXXXXXXXX.           ",
"         .ooooo..+++..oooo..XXXXXXXX.           ",
"         .ooooo..+++++.ooooo...XXXXX.           ",
"         .oooo.@..+++++.ooooooo..XXXX.          ",
"         .oooo.@@..++++....oooooo.XXXX.         ",
"          .ooo.@@@.++++.   .ooooo.XXXX.         ",
"          .oo.@@@@.++++.   .oooo. .XXXX.        ",
"         .ooo.@@@@.++++.    .ooo.  .XXX.        ",
"         .ooo.@@@@.++++.    .ooo.  .XXXX.       ",
"        .ooo.@@@@@.+++.     .oooo.  .XXX.       ",
"        .ooo.@@@@@.+++.      .ooo.  .XXXX..     ",
"       .oooo.@@@@..+++.      .oooo.  .XXXXX.    ",
"      .oooo.@@@@. .++.        .ooo.   .XXXX.    ",
"     .ooooo.@@@. .+++.        .ooo.   .XXXX.    ",
"     .ooooo...@. .+++.         .ooo.   .XXX.    ",
"    .ooooo.  ..  .++.          ..ooo.   .XX.    ",
"    .ooooo.      .++.           .ooo.    ..     ",
"    .oooo.       .++.           .oooo.          ",
"    .oooo.      .+++.            .ooo.          ",
"    .ooo.       .+++.            .ooo.          ",
"     ...        .++.              ...           ",
"                .++.                            ",
"                .++.                            ",
"                 ..                             "};
