/* XPM */
static char *magick[] = {
/* columns rows colors chars-per-pixel */
"20 14 6 1",
"  c #000000",
". c #800000",
"X c #be0000",
"o c #ff0000",
"O c #ffbebe",
"+ c None",
/* pixels */
"++++++++++++++++++++",
"++++++++++++++++++++",
"++++++++++++++++++++",
"+++oooo+++++++++++++",
"++oO..oo++++++++++++",
"++o.++..oooooooooo++",
"++o.++............++",
"++o.++.......XXX..++",
"++o.....+++++Xo+.o++",
"+++....++++++Xo+.o++",
"+++++++++++++Xo+.o++",
"++++++++++++++++++++",
"++++++++++++++++++++",
"++++++++++++++++++++"
};
