/* XPM */
static char * filereply_xpm[] = {
"22 22 6 1",
" 	s None	c None",
".	c black",
"X	c white",
"o	c grey70",
"O	c #DF7DDF7DDF7D",
"+	c blue2",
"                      ",
"                      ",
"                      ",
"     ........         ",
"     .XXXXXXo.        ",
"     .XXXXXXoO.       ",
"     .XXXXXXoXO.      ",
"    ++XXXXXXo....     ",
"   ++ooOXXXXXooO.     ",
"  +++++++++OXXXO.     ",
" ++++++++++++XXX.     ",
"  +++++++++++OXX.     ",
"   ++oooooo+++OX.     ",
"    ++OOOOOO++oX.     ",
"     ooXXXXO++oX.     ",
"     .XXXXX+++OX.     ",
"     .+++++++oOX.     ",
"     .++++++oOXX.     ",
"     ............     ",
"                      ",
"                      ",
"                      "};
