/* XPM */
static char * filereplyall_xpm[] = {
"22 22 7 1",
" 	s None	c None",
".	c blue2",
"X	c grey70",
"o	c white",
"O	c black",
"+	c #DF7DDF7DDF7D",
"@	c #79E77DF779E7",
"                      ",
"                      ",
"    ..                ",
"   ..XXooooX          ",
"  .........oXO        ",
" ...........X+O       ",
"  ...........o+O      ",
"   ..Xooooo...OOO     ",
"   @..X+oooo..X+O     ",
"  ..@@@....+..o+O     ",
" .............ooO     ",
"  ............ooO     ",
"   ..XXXXXX...+oO     ",
"    ..++++++..XoO     ",
"     XXoooo+..XoO     ",
"     Oooooo...+oO     ",
"     OXXX@...X+oO     ",
"     O......X+ooO     ",
"     OOOOOOOOOOOO     ",
"                      ",
"                      ",
"                      "};
