/* XPM */
static char * forward_xpm[] = {
"22 22 6 1",
" 	s None	c None",
".	c black",
"X	c white",
"o	c #DF7DDF7DDF7D",
"O	c blue2",
"+	c grey60",
"                      ",
"                      ",
"                      ",
"     ........         ",
"     .XXXXXXo.        ",
"     .XXXXXX o.       ",
"     .XXXXXX Xo.      ",
"     .XXXXXX ....     ",
"     .XXXXXXX   .     ",
"     .XXXXXXXXXo. O   ",
"     .XXXXXXXXXX. OO  ",
" OOOOOOOOOOOOOOOOOOOO ",
"    OOOOOOOOOOOOOOOOOO",
"     +++OOOOOOOOOOOOO ",
"     .Xoo+++++++. OO  ",
"     .XXXXXooooo. O   ",
"     .XXXXXXXXXX.     ",
"     .XXXXXXXXXX.     ",
"     ............     ",
"                      ",
"                      ",
"                      "};
