/* XPM */
static char * next_xpm[] = {
"22 22 4 1",
" 	c None",
".	c #000000000000",
"X	c #FFFFFFFFFFFF",
"o	c #861782078617",
"                      ",
"                      ",
"                      ",
"                      ",
"                      ",
"    .      .......    ",
"   .X. .o  .......    ",
"  .X X.X.             ",
" .X   XX.  ........   ",
"  .    X.             ",
"   .   X.  .....      ",
"  .     .             ",
"  o......  ........   ",
"           ........   ",
"                      ",
"           ....       ",
"                      ",
"           ......     ",
"                      ",
"                      ",
"                      ",
"                      "};
